# xmcd
#
# Track frame offsets:
#	150
#	16770
#	41085
#	56755
#	79792
#	91882
#	116780
#	137350
#	161445
#	180117
#
# Disc length: 2654 seconds
#
# Revision: 1
# Processed by: cddbd v1.5.2PL0 Copyright (c) Steve Scherf et al.
# Submitted via: EZCDAudioConverter 8.0.2.1
#
DISCID=6f0a5c0a
DTITLE=Hương Lan, Ngọc Lan - Thu Sầu
DYEAR=1996
DGENRE=World Pop
TTITLE0=Hương Lan - Nỗi buồn gác trọ
TTITLE1=Ngọc Lan - Niềm đau của cát
TTITLE2=Hương Lan - Mưa nửa đêm
TTITLE3=Ngọc Lan - Nắng chiều
TTITLE4=Hương Lan - Khúc ca buồn
TTITLE5=Ngọc Lan - Thu Sầu
TTITLE6=Hương Lan - ngoại ô đèn vàng
TTITLE7=Ngọc Lan - Huyền thoại một chiều mưa
TTITLE8=Hương Lan - Ai biểu anh làm thinh
TTITLE9=Ngọc Lan - Nét son buồn
EXTD=
EXTT0=
EXTT1=
EXTT2=
EXTT3=
EXTT4=
EXTT5=
EXTT6=
EXTT7=
EXTT8=
EXTT9=
PLAYORDER=
